<?xml version="1.0" encoding="iso-8859-1"?>
<!-- Generator: Adobe Illustrator 19.0.0, SVG Export Plug-In . SVG Version: 6.00 Build 0)  -->
<svg version="1.1" id="Capa_1" xmlns="http://www.w3.org/2000/svg" xmlns:xlink="http://www.w3.org/1999/xlink" x="0px" y="0px"
	 viewBox="0 0 512 512" style="enable-background:new 0 0 512 512;" xml:space="preserve" >
<g >
	<g color="#D63232" >
		<path fill="currentcolor" d="M437.02,74.98C388.666,26.628,324.379,0,256,0C187.619,0,123.332,26.628,74.98,74.98C26.629,123.331,0,187.619,0,256
			c0,68.38,26.629,132.667,74.98,181.019C123.332,485.371,187.619,512,256,512c68.379,0,132.666-26.629,181.02-74.981
			C485.371,388.667,512,324.38,512,256C512,187.619,485.371,123.331,437.02,74.98z M392.033,268.99L199.232,380.299
			c-2.32,1.34-4.91,2.01-7.5,2.01c-2.59,0-5.18-0.67-7.5-2.01c-4.641-2.68-7.5-7.631-7.5-12.99V144.688
			c0-5.359,2.859-10.311,7.5-12.99c4.641-2.68,10.359-2.68,15,0L392.033,243.01c4.641,2.68,7.5,7.631,7.5,12.99
			S396.674,266.311,392.033,268.99z"/>
	</g>
</g>
<g>
</g>
<g>
</g>
<g>
</g>
<g>
</g>
<g>
</g>
<g>
</g>
<g>
</g>
<g>
</g>
<g>
</g>
<g>
</g>
<g>
</g>
<g>
</g>
<g>
</g>
<g>
</g>
<g>
</g>
</svg>
