<svg height="512pt" viewBox="0 0 512 512" width="512pt" xmlns="http://www.w3.org/2000/svg"><path d="m256 30c60.367188 0 117.121094 23.507812 159.804688 66.191406l21.214843-21.210937c-48.351562-48.351563-112.640625-74.980469-181.019531-74.980469s-132.667969 26.628906-181.019531 74.980469l21.214843 21.210937c42.683594-42.683594 99.4375-66.191406 159.804688-66.191406zm0 0"/><path d="m0 130h90v30h-90zm0 0"/><path d="m482 130v-30h-30v30h-30v30h30v30h30v-30h30v-30zm0 0"/><path d="m310.445312 276.765625-21.210937-21.210937 34.605469-34.605469c-18.839844-14.390625-42.359375-22.949219-67.839844-22.949219-61.757812 0-112 50.242188-112 112s50.242188 112 112 112 112-50.242188 112-112c0-25.480469-8.558594-49-22.949219-67.839844zm0 0"/><path d="m256 108c-111.382812 0-202 90.617188-202 202s90.617188 202 202 202 202-90.617188 202-202-90.617188-202-202-202zm0 344c-78.300781 0-142-63.699219-142-142s63.699219-142 142-142 142 63.699219 142 142-63.699219 142-142 142zm0 0"/></svg>